<mxfile host="app.diagrams.net" modified="2021-07-29T06:37:48.158Z" agent="5.0 (Macintosh; Intel Mac OS X 10_15_7) AppleWebKit/537.36 (KHTML, like Gecko) Chrome/92.0.4515.107 Safari/537.36" etag="jcsFFNwvdztBEUM3ur-g" version="14.8.5" type="github">
  <diagram id="e0tFUxz5-p7J-JOnQLf7" name="第 1 页">
    <mxGraphModel dx="946" dy="623" grid="1" gridSize="10" guides="1" tooltips="1" connect="1" arrows="1" fold="1" page="1" pageScale="1" pageWidth="827" pageHeight="1169" math="0" shadow="0">
      <root>
        <mxCell id="0" />
        <mxCell id="1" parent="0" />
        <mxCell id="sRR_yiHokzhgoUJK7DaQ-69" value="" style="shape=curlyBracket;whiteSpace=wrap;html=1;rounded=1;flipH=1;fontSize=14;size=0.3053435114503817;dashed=1;dashPattern=1 1;" vertex="1" parent="1">
          <mxGeometry x="469" y="300" width="131" height="220" as="geometry" />
        </mxCell>
        <mxCell id="sRR_yiHokzhgoUJK7DaQ-1" value="" style="shape=table;html=1;whiteSpace=wrap;startSize=0;container=1;collapsible=0;childLayout=tableLayout;fillColor=#f5f5f5;strokeColor=#666666;fontColor=#333333;" vertex="1" parent="1">
          <mxGeometry x="359" y="120" width="110" height="400" as="geometry" />
        </mxCell>
        <mxCell id="sRR_yiHokzhgoUJK7DaQ-2" value="" style="shape=partialRectangle;html=1;whiteSpace=wrap;collapsible=0;dropTarget=0;pointerEvents=0;fillColor=none;top=0;left=0;bottom=0;right=0;points=[[0,0.5],[1,0.5]];portConstraint=eastwest;" vertex="1" parent="sRR_yiHokzhgoUJK7DaQ-1">
          <mxGeometry width="110" height="40" as="geometry" />
        </mxCell>
        <mxCell id="sRR_yiHokzhgoUJK7DaQ-3" value="1" style="shape=partialRectangle;html=1;whiteSpace=wrap;connectable=0;fillColor=none;top=0;left=0;bottom=0;right=0;overflow=hidden;" vertex="1" parent="sRR_yiHokzhgoUJK7DaQ-2">
          <mxGeometry width="110" height="40" as="geometry" />
        </mxCell>
        <mxCell id="sRR_yiHokzhgoUJK7DaQ-6" value="" style="shape=partialRectangle;html=1;whiteSpace=wrap;collapsible=0;dropTarget=0;pointerEvents=0;fillColor=none;top=0;left=0;bottom=0;right=0;points=[[0,0.5],[1,0.5]];portConstraint=eastwest;" vertex="1" parent="sRR_yiHokzhgoUJK7DaQ-1">
          <mxGeometry y="40" width="110" height="40" as="geometry" />
        </mxCell>
        <mxCell id="sRR_yiHokzhgoUJK7DaQ-7" value="2" style="shape=partialRectangle;html=1;whiteSpace=wrap;connectable=0;fillColor=none;top=0;left=0;bottom=0;right=0;overflow=hidden;" vertex="1" parent="sRR_yiHokzhgoUJK7DaQ-6">
          <mxGeometry width="110" height="40" as="geometry" />
        </mxCell>
        <mxCell id="sRR_yiHokzhgoUJK7DaQ-14" style="shape=partialRectangle;html=1;whiteSpace=wrap;collapsible=0;dropTarget=0;pointerEvents=0;fillColor=none;top=0;left=0;bottom=0;right=0;points=[[0,0.5],[1,0.5]];portConstraint=eastwest;" vertex="1" parent="sRR_yiHokzhgoUJK7DaQ-1">
          <mxGeometry y="80" width="110" height="40" as="geometry" />
        </mxCell>
        <mxCell id="sRR_yiHokzhgoUJK7DaQ-15" value="3" style="shape=partialRectangle;html=1;whiteSpace=wrap;connectable=0;fillColor=none;top=0;left=0;bottom=0;right=0;overflow=hidden;" vertex="1" parent="sRR_yiHokzhgoUJK7DaQ-14">
          <mxGeometry width="110" height="40" as="geometry" />
        </mxCell>
        <mxCell id="sRR_yiHokzhgoUJK7DaQ-16" style="shape=partialRectangle;html=1;whiteSpace=wrap;collapsible=0;dropTarget=0;pointerEvents=0;fillColor=none;top=0;left=0;bottom=0;right=0;points=[[0,0.5],[1,0.5]];portConstraint=eastwest;" vertex="1" parent="sRR_yiHokzhgoUJK7DaQ-1">
          <mxGeometry y="120" width="110" height="40" as="geometry" />
        </mxCell>
        <mxCell id="sRR_yiHokzhgoUJK7DaQ-17" value="4" style="shape=partialRectangle;html=1;whiteSpace=wrap;connectable=0;fillColor=#dae8fc;top=0;left=0;bottom=0;right=0;overflow=hidden;strokeColor=#6c8ebf;" vertex="1" parent="sRR_yiHokzhgoUJK7DaQ-16">
          <mxGeometry width="110" height="40" as="geometry" />
        </mxCell>
        <mxCell id="sRR_yiHokzhgoUJK7DaQ-18" style="shape=partialRectangle;html=1;whiteSpace=wrap;collapsible=0;dropTarget=0;pointerEvents=0;fillColor=#d5e8d4;top=0;left=0;bottom=0;right=0;points=[[0,0.5],[1,0.5]];portConstraint=eastwest;strokeColor=#82b366;" vertex="1" parent="sRR_yiHokzhgoUJK7DaQ-1">
          <mxGeometry y="160" width="110" height="40" as="geometry" />
        </mxCell>
        <mxCell id="sRR_yiHokzhgoUJK7DaQ-19" value="5" style="shape=partialRectangle;html=1;whiteSpace=wrap;connectable=0;fillColor=#ffe6cc;top=0;left=0;bottom=0;right=0;overflow=hidden;strokeColor=#d79b00;" vertex="1" parent="sRR_yiHokzhgoUJK7DaQ-18">
          <mxGeometry width="110" height="40" as="geometry" />
        </mxCell>
        <mxCell id="sRR_yiHokzhgoUJK7DaQ-20" style="shape=partialRectangle;html=1;whiteSpace=wrap;collapsible=0;dropTarget=0;pointerEvents=0;fillColor=none;top=0;left=0;bottom=0;right=0;points=[[0,0.5],[1,0.5]];portConstraint=eastwest;" vertex="1" parent="sRR_yiHokzhgoUJK7DaQ-1">
          <mxGeometry y="200" width="110" height="40" as="geometry" />
        </mxCell>
        <mxCell id="sRR_yiHokzhgoUJK7DaQ-21" value="6" style="shape=partialRectangle;html=1;whiteSpace=wrap;connectable=0;fillColor=#ffe6cc;top=0;left=0;bottom=0;right=0;overflow=hidden;strokeColor=#d79b00;" vertex="1" parent="sRR_yiHokzhgoUJK7DaQ-20">
          <mxGeometry width="110" height="40" as="geometry" />
        </mxCell>
        <mxCell id="sRR_yiHokzhgoUJK7DaQ-22" style="shape=partialRectangle;html=1;whiteSpace=wrap;collapsible=0;dropTarget=0;pointerEvents=0;fillColor=none;top=0;left=0;bottom=0;right=0;points=[[0,0.5],[1,0.5]];portConstraint=eastwest;" vertex="1" parent="sRR_yiHokzhgoUJK7DaQ-1">
          <mxGeometry y="240" width="110" height="40" as="geometry" />
        </mxCell>
        <mxCell id="sRR_yiHokzhgoUJK7DaQ-23" value="7" style="shape=partialRectangle;html=1;whiteSpace=wrap;connectable=0;fillColor=#d5e8d4;top=0;left=0;bottom=0;right=0;overflow=hidden;strokeColor=#82b366;" vertex="1" parent="sRR_yiHokzhgoUJK7DaQ-22">
          <mxGeometry width="110" height="40" as="geometry" />
        </mxCell>
        <mxCell id="sRR_yiHokzhgoUJK7DaQ-24" style="shape=partialRectangle;html=1;whiteSpace=wrap;collapsible=0;dropTarget=0;pointerEvents=0;fillColor=none;top=0;left=0;bottom=0;right=0;points=[[0,0.5],[1,0.5]];portConstraint=eastwest;" vertex="1" parent="sRR_yiHokzhgoUJK7DaQ-1">
          <mxGeometry y="280" width="110" height="40" as="geometry" />
        </mxCell>
        <mxCell id="sRR_yiHokzhgoUJK7DaQ-25" value="8" style="shape=partialRectangle;html=1;whiteSpace=wrap;connectable=0;fillColor=#d5e8d4;top=0;left=0;bottom=0;right=0;overflow=hidden;strokeColor=#82b366;" vertex="1" parent="sRR_yiHokzhgoUJK7DaQ-24">
          <mxGeometry width="110" height="40" as="geometry" />
        </mxCell>
        <mxCell id="sRR_yiHokzhgoUJK7DaQ-26" style="shape=partialRectangle;html=1;whiteSpace=wrap;collapsible=0;dropTarget=0;pointerEvents=0;fillColor=none;top=0;left=0;bottom=0;right=0;points=[[0,0.5],[1,0.5]];portConstraint=eastwest;" vertex="1" parent="sRR_yiHokzhgoUJK7DaQ-1">
          <mxGeometry y="320" width="110" height="40" as="geometry" />
        </mxCell>
        <mxCell id="sRR_yiHokzhgoUJK7DaQ-27" value="9" style="shape=partialRectangle;html=1;whiteSpace=wrap;connectable=0;fillColor=none;top=0;left=0;bottom=0;right=0;overflow=hidden;" vertex="1" parent="sRR_yiHokzhgoUJK7DaQ-26">
          <mxGeometry width="110" height="40" as="geometry" />
        </mxCell>
        <mxCell id="sRR_yiHokzhgoUJK7DaQ-28" style="shape=partialRectangle;html=1;whiteSpace=wrap;collapsible=0;dropTarget=0;pointerEvents=0;fillColor=none;top=0;left=0;bottom=0;right=0;points=[[0,0.5],[1,0.5]];portConstraint=eastwest;" vertex="1" parent="sRR_yiHokzhgoUJK7DaQ-1">
          <mxGeometry y="360" width="110" height="40" as="geometry" />
        </mxCell>
        <mxCell id="sRR_yiHokzhgoUJK7DaQ-29" value="10" style="shape=partialRectangle;html=1;whiteSpace=wrap;connectable=0;fillColor=none;top=0;left=0;bottom=0;right=0;overflow=hidden;" vertex="1" parent="sRR_yiHokzhgoUJK7DaQ-28">
          <mxGeometry width="110" height="40" as="geometry" />
        </mxCell>
        <mxCell id="sRR_yiHokzhgoUJK7DaQ-30" value="" style="shape=table;html=1;whiteSpace=wrap;startSize=0;container=1;collapsible=0;childLayout=tableLayout;fillColor=#dae8fc;strokeColor=#6c8ebf;" vertex="1" parent="1">
          <mxGeometry x="100" y="180" width="90" height="120" as="geometry" />
        </mxCell>
        <mxCell id="sRR_yiHokzhgoUJK7DaQ-31" value="" style="shape=partialRectangle;html=1;whiteSpace=wrap;collapsible=0;dropTarget=0;pointerEvents=0;fillColor=none;top=0;left=0;bottom=0;right=0;points=[[0,0.5],[1,0.5]];portConstraint=eastwest;" vertex="1" parent="sRR_yiHokzhgoUJK7DaQ-30">
          <mxGeometry width="90" height="40" as="geometry" />
        </mxCell>
        <mxCell id="sRR_yiHokzhgoUJK7DaQ-32" value="data1" style="shape=partialRectangle;html=1;whiteSpace=wrap;connectable=0;fillColor=none;top=0;left=0;bottom=0;right=0;overflow=hidden;" vertex="1" parent="sRR_yiHokzhgoUJK7DaQ-31">
          <mxGeometry width="90" height="40" as="geometry" />
        </mxCell>
        <mxCell id="sRR_yiHokzhgoUJK7DaQ-35" value="" style="shape=partialRectangle;html=1;whiteSpace=wrap;collapsible=0;dropTarget=0;pointerEvents=0;fillColor=none;top=0;left=0;bottom=0;right=0;points=[[0,0.5],[1,0.5]];portConstraint=eastwest;" vertex="1" parent="sRR_yiHokzhgoUJK7DaQ-30">
          <mxGeometry y="40" width="90" height="40" as="geometry" />
        </mxCell>
        <mxCell id="sRR_yiHokzhgoUJK7DaQ-36" value="len:3" style="shape=partialRectangle;html=1;whiteSpace=wrap;connectable=0;fillColor=none;top=0;left=0;bottom=0;right=0;overflow=hidden;" vertex="1" parent="sRR_yiHokzhgoUJK7DaQ-35">
          <mxGeometry width="90" height="40" as="geometry" />
        </mxCell>
        <mxCell id="sRR_yiHokzhgoUJK7DaQ-39" value="" style="shape=partialRectangle;html=1;whiteSpace=wrap;collapsible=0;dropTarget=0;pointerEvents=0;fillColor=none;top=0;left=0;bottom=0;right=0;points=[[0,0.5],[1,0.5]];portConstraint=eastwest;" vertex="1" parent="sRR_yiHokzhgoUJK7DaQ-30">
          <mxGeometry y="80" width="90" height="40" as="geometry" />
        </mxCell>
        <mxCell id="sRR_yiHokzhgoUJK7DaQ-40" value="cap:7" style="shape=partialRectangle;html=1;whiteSpace=wrap;connectable=0;fillColor=none;top=0;left=0;bottom=0;right=0;overflow=hidden;" vertex="1" parent="sRR_yiHokzhgoUJK7DaQ-39">
          <mxGeometry width="90" height="40" as="geometry" />
        </mxCell>
        <mxCell id="sRR_yiHokzhgoUJK7DaQ-43" value="" style="shape=table;html=1;whiteSpace=wrap;startSize=0;container=1;collapsible=0;childLayout=tableLayout;fillColor=#d5e8d4;strokeColor=#82b366;" vertex="1" parent="1">
          <mxGeometry x="630" y="330" width="90" height="120" as="geometry" />
        </mxCell>
        <mxCell id="sRR_yiHokzhgoUJK7DaQ-44" value="" style="shape=partialRectangle;html=1;whiteSpace=wrap;collapsible=0;dropTarget=0;pointerEvents=0;fillColor=none;top=0;left=0;bottom=0;right=0;points=[[0,0.5],[1,0.5]];portConstraint=eastwest;" vertex="1" parent="sRR_yiHokzhgoUJK7DaQ-43">
          <mxGeometry width="90" height="40" as="geometry" />
        </mxCell>
        <mxCell id="sRR_yiHokzhgoUJK7DaQ-45" value="data2" style="shape=partialRectangle;html=1;whiteSpace=wrap;connectable=0;fillColor=none;top=0;left=0;bottom=0;right=0;overflow=hidden;" vertex="1" parent="sRR_yiHokzhgoUJK7DaQ-44">
          <mxGeometry width="90" height="40" as="geometry" />
        </mxCell>
        <mxCell id="sRR_yiHokzhgoUJK7DaQ-46" value="" style="shape=partialRectangle;html=1;whiteSpace=wrap;collapsible=0;dropTarget=0;pointerEvents=0;fillColor=none;top=0;left=0;bottom=0;right=0;points=[[0,0.5],[1,0.5]];portConstraint=eastwest;" vertex="1" parent="sRR_yiHokzhgoUJK7DaQ-43">
          <mxGeometry y="40" width="90" height="40" as="geometry" />
        </mxCell>
        <mxCell id="sRR_yiHokzhgoUJK7DaQ-47" value="&lt;span&gt;len:4&lt;/span&gt;" style="shape=partialRectangle;html=1;whiteSpace=wrap;connectable=0;fillColor=none;top=0;left=0;bottom=0;right=0;overflow=hidden;" vertex="1" parent="sRR_yiHokzhgoUJK7DaQ-46">
          <mxGeometry width="90" height="40" as="geometry" />
        </mxCell>
        <mxCell id="sRR_yiHokzhgoUJK7DaQ-48" value="" style="shape=partialRectangle;html=1;whiteSpace=wrap;collapsible=0;dropTarget=0;pointerEvents=0;fillColor=none;top=0;left=0;bottom=0;right=0;points=[[0,0.5],[1,0.5]];portConstraint=eastwest;" vertex="1" parent="sRR_yiHokzhgoUJK7DaQ-43">
          <mxGeometry y="80" width="90" height="40" as="geometry" />
        </mxCell>
        <mxCell id="sRR_yiHokzhgoUJK7DaQ-49" value="&lt;span&gt;cap:6&lt;/span&gt;" style="shape=partialRectangle;html=1;whiteSpace=wrap;connectable=0;fillColor=none;top=0;left=0;bottom=0;right=0;overflow=hidden;" vertex="1" parent="sRR_yiHokzhgoUJK7DaQ-48">
          <mxGeometry width="90" height="40" as="geometry" />
        </mxCell>
        <UserObject label="array" placeholders="1" name="Variable" id="sRR_yiHokzhgoUJK7DaQ-55">
          <mxCell style="text;html=1;strokeColor=none;fillColor=none;align=center;verticalAlign=middle;whiteSpace=wrap;overflow=hidden;fontSize=14;" vertex="1" parent="1">
            <mxGeometry x="374" y="87" width="80" height="20" as="geometry" />
          </mxCell>
        </UserObject>
        <UserObject label="array[3:6]" placeholders="1" name="Variable" id="sRR_yiHokzhgoUJK7DaQ-58">
          <mxCell style="text;html=1;strokeColor=none;fillColor=none;align=center;verticalAlign=middle;whiteSpace=wrap;overflow=hidden;fontSize=14;" vertex="1" parent="1">
            <mxGeometry x="106" y="150" width="80" height="20" as="geometry" />
          </mxCell>
        </UserObject>
        <UserObject label="array[4:8]" placeholders="1" name="Variable" id="sRR_yiHokzhgoUJK7DaQ-59">
          <mxCell style="text;html=1;strokeColor=none;fillColor=none;align=center;verticalAlign=middle;whiteSpace=wrap;overflow=hidden;fontSize=14;" vertex="1" parent="1">
            <mxGeometry x="632" y="296" width="80" height="20" as="geometry" />
          </mxCell>
        </UserObject>
        <mxCell id="sRR_yiHokzhgoUJK7DaQ-60" value="" style="curved=1;endArrow=classic;html=1;fontSize=14;entryX=0;entryY=0.5;entryDx=0;entryDy=0;exitX=1;exitY=0.5;exitDx=0;exitDy=0;" edge="1" parent="1" source="sRR_yiHokzhgoUJK7DaQ-31" target="sRR_yiHokzhgoUJK7DaQ-16">
          <mxGeometry width="50" height="50" relative="1" as="geometry">
            <mxPoint x="390" y="350" as="sourcePoint" />
            <mxPoint x="440" y="300" as="targetPoint" />
            <Array as="points">
              <mxPoint x="240" y="220" />
              <mxPoint x="310" y="200" />
            </Array>
          </mxGeometry>
        </mxCell>
        <mxCell id="sRR_yiHokzhgoUJK7DaQ-61" value="" style="curved=1;endArrow=classic;html=1;fontSize=14;exitX=0;exitY=0.5;exitDx=0;exitDy=0;entryX=1;entryY=0.5;entryDx=0;entryDy=0;" edge="1" parent="1" source="sRR_yiHokzhgoUJK7DaQ-44" target="sRR_yiHokzhgoUJK7DaQ-18">
          <mxGeometry width="50" height="50" relative="1" as="geometry">
            <mxPoint x="620" y="350" as="sourcePoint" />
            <mxPoint x="440" y="300" as="targetPoint" />
            <Array as="points">
              <mxPoint x="580" y="350" />
              <mxPoint x="580" y="250" />
            </Array>
          </mxGeometry>
        </mxCell>
        <mxCell id="sRR_yiHokzhgoUJK7DaQ-63" value="" style="shape=curlyBracket;whiteSpace=wrap;html=1;rounded=1;fontSize=14;" vertex="1" parent="1">
          <mxGeometry x="300" y="260" width="59" height="100" as="geometry" />
        </mxCell>
        <mxCell id="sRR_yiHokzhgoUJK7DaQ-65" value="" style="shape=curlyBracket;whiteSpace=wrap;html=1;rounded=1;fontSize=14;size=0.3333333333333333;dashed=1;dashPattern=1 1;" vertex="1" parent="1">
          <mxGeometry x="224" y="260" width="150" height="260" as="geometry" />
        </mxCell>
        <mxCell id="sRR_yiHokzhgoUJK7DaQ-66" value="len:3" style="text;html=1;strokeColor=none;fillColor=none;align=center;verticalAlign=middle;whiteSpace=wrap;rounded=0;fontSize=14;" vertex="1" parent="1">
          <mxGeometry x="290" y="280" width="40" height="20" as="geometry" />
        </mxCell>
        <mxCell id="sRR_yiHokzhgoUJK7DaQ-67" value="cap:7" style="text;html=1;strokeColor=none;fillColor=none;align=center;verticalAlign=middle;whiteSpace=wrap;rounded=0;fontSize=14;" vertex="1" parent="1">
          <mxGeometry x="224" y="362" width="40" height="20" as="geometry" />
        </mxCell>
        <mxCell id="sRR_yiHokzhgoUJK7DaQ-68" value="" style="shape=curlyBracket;whiteSpace=wrap;html=1;rounded=1;flipH=1;fontSize=14;size=0.5;" vertex="1" parent="1">
          <mxGeometry x="469" y="300" width="71" height="140" as="geometry" />
        </mxCell>
        <mxCell id="sRR_yiHokzhgoUJK7DaQ-70" value="len:4" style="text;html=1;strokeColor=none;fillColor=none;align=center;verticalAlign=middle;whiteSpace=wrap;rounded=0;fontSize=14;" vertex="1" parent="1">
          <mxGeometry x="508.5" y="342" width="40" height="20" as="geometry" />
        </mxCell>
        <mxCell id="sRR_yiHokzhgoUJK7DaQ-71" value="cap:6" style="text;html=1;strokeColor=none;fillColor=none;align=center;verticalAlign=middle;whiteSpace=wrap;rounded=0;fontSize=14;" vertex="1" parent="1">
          <mxGeometry x="560" y="382" width="40" height="20" as="geometry" />
        </mxCell>
      </root>
    </mxGraphModel>
  </diagram>
</mxfile>
